#!OML:ASF X:\für Bonn\!DataBase\2005_08_10_Bjorn_Final\c3d\bjorn.ASF
:FULLY-SPECIFIED
:DEGREES
30
root 4.80164 22.8066 18.9922 8.57913 1.75066 2.32233
lowerback -12.0954 -0.427548 -0.208446
upperback 2.40957 -0.545647 0.0708198
thorax 9.39561 -0.276651 0.0844436
lowerneck 1.18218 -2.67368 -0.379307
upperneck 11.7637 -3.62935 0.494903
head 3.60906 -1.79133 0.127188
rclavicle -7.65321e-015 -5.1684e-015
rhumerus -57.7956 -44.7285 -2.60351
rradius 143.048
rwrist -228.684
rhand -7.91958e-013 2.81479e-013
rfingers 7.12502
rthumb 25.5904 -28.3008
lclavicle -7.65321e-015 -5.1684e-015
lhumerus -37.1937 -13.6993 47.221
lradius 136.492
lwrist 4.93094
lhand 7.69694e-013 1.22451e-012
lfingers 7.12502
lthumb 25.5904 28.3008
rfemur -11.339 -10.409 13.6353
rtibia 39.7302
rfoot 23.0806 2.2947
rtoes -11.6541
lfemur -13.8363 4.89932 -15.3894
ltibia 40.2215
lfoot 25.3309 -1.61111
ltoes -5.07511
31
root 4.78848 22.9744 19.115 8.52843 1.45543 2.38851
lowerback -11.8205 -0.338968 -0.234156
upperback 2.44504 -0.414578 -0.0324225
thorax 9.27314 -0.211748 0.0161829
lowerneck 1.04538 -2.70276 -0.226406
upperneck 11.7501 -3.66122 0.386728
head 3.62444 -1.80436 0.062649
rclavicle 4.96962e-016 3.97569e-015
rhumerus -55.9682 -44.6154 -4.85315
rradius 143.465
rwrist -228.2
rhand -6.74278e-013 2.05146e-013
rfingers 7.12502
rthumb 25.5904 -28.3008
lclavicle 4.96962e-016 3.97569e-015
lhumerus -35.5126 -13.7645 46.94
lradius 136.195
lwrist 4.10731
lhand 1.65389e-013 2.57625e-013
lfingers 7.12502
lthumb 25.5904 28.3008
rfemur -11.7477 -10.6544 13.5495
rtibia 39.8963
rfoot 23.2822 2.74558
rtoes -11.4944
lfemur -14.2876 5.29264 -15.6985
ltibia 40.6293
lfoot 25.4373 -2.89095
ltoes -4.99564
32
root 4.77633 23.1323 19.235 8.54972 1.13306 2.4263
lowerback -11.5491 -0.239537 -0.236442
upperback 2.45244 -0.274671 -0.116123
thorax 9.12239 -0.141806 -0.0433484
lowerneck 1.13738 -2.74293 -0.0826789
upperneck 11.6222 -3.70347 0.248084
head 3.55581 -1.825 -0.00565697
rclavicle -9.24349e-015 5.56597e-015
rhumerus -53.7801 -44.1853 -7.85418
rradius 143.762
rwrist -227.298
rhand 1.19907e-012 -3.76896e-013
rfingers 7.12502
rthumb 25.5904 -28.3008
lclavicle -9.24349e-015 5.56597e-015
lhumerus -33.8772 -13.914 46.8145
lradius 135.802
lwrist 3.72412
lhand -4.45278e-014 -1.51792e-012
lfingers 7.12502
lthumb 25.5904 28.3008
rfemur -12.3034 -10.8888 13.5048
rtibia 40.078
rfoot 23.2669 3.36311
rtoes -11.4225
lfemur -14.7991 5.69897 -16.0024
ltibia 40.9288
lfoot 25.4941 -4.12069
ltoes -5.21037
33
root 4.76415 23.2775 19.3487 8.5809 0.846916 2.47056
lowerback -11.2286 -0.161732 -0.262916
upperback 2.48351 -0.162768 -0.174244
thorax 8.96953 -0.0874112 -0.0679872
lowerneck 1.34236 -2.76451 -0.0415335
upperneck 11.3765 -3.72498 0.189475
head 3.429 -1.83732 -0.0263889
rclavicle 3.57812e-015 -4.37326e-015
rhumerus -51.2672 -43.4929 -11.3163
rradius 143.887
rwrist -226.036
rhand -1.04958e-012 1.27222e-013
rfingers 7.12502
rthumb 25.5904 -28.3008
lclavicle 3.57812e-015 -4.37326e-015
lhumerus -32.2724 -14.1001 46.8463
lradius 135.314
lwrist 3.8326
lhand -1.04958e-013 1.78588e-012
lfingers 7.12502
lthumb 25.5904 28.3008
rfemur -12.9315 -11.2043 13.4837
rtibia 40.2803
rfoot 22.9821 4.24038
rtoes -11.9526
lfemur -15.3425 6.15819 -16.3143
ltibia 41.1435
lfoot 25.5292 -5.22189
ltoes -6.21354
34
root 4.75291 23.4086 19.4575 8.50685 0.503568 2.5047
lowerback -10.7539 -0.0535433 -0.243756
upperback 2.55218 -0.0150347 -0.26281
thorax 8.76801 -0.0122031 -0.14486
lowerneck 1.43911 -2.78838 0.00928429
upperneck 11.2745 -3.75389 0.160717
head 3.37361 -1.85105 -0.0424195
rclavicle 1.2921e-015 -7.15625e-015
rhumerus -48.7663 -42.5458 -14.7881
rradius 143.749
rwrist -224.784
rhand -8.07861e-013 2.03555e-013
rfingers 7.12502
rthumb 25.5904 -28.3008
lclavicle 1.2921e-015 -7.15625e-015
lhumerus -30.7102 -14.3025 46.9442
lradius 134.754
lwrist 3.98301
lhand 4.16653e-013 1.59187e-012
lfingers 7.12502
lthumb 25.5904 28.3008
rfemur -13.4959 -11.4955 13.4539
rtibia 40.4598
rfoot 22.5297 5.20649
rtoes -12.1534
lfemur -15.7867 6.65331 -16.6255
ltibia 41.2942
lfoot 25.5153 -6.23127
ltoes -7.28448
35
root 4.74211 23.5249 19.5618 8.31627 0.164573 2.53782
lowerback -10.1533 0.035933 -0.24585
upperback 2.68149 0.107728 -0.322951
thorax 8.55928 0.0490715 -0.185513
lowerneck 1.47776 -2.79824 0.0148592
upperneck 11.2143 -3.76283 0.122764
head 3.34445 -1.85677 -0.0545722
rclavicle -7.30534e-015 -2.38542e-015
rhumerus -46.0644 -41.2129 -18.4104
rradius 143.285
rwrist -223.485
rhand -9.95514e-013 5.91583e-013
rfingers 7.12502
rthumb 25.5904 -28.3008
lclavicle -7.30534e-015 -2.38542e-015
lhumerus -29.2383 -14.3656 47.0768
lradius 134.144
lwrist 3.76775
lhand 7.95139e-013 7.55382e-013
lfingers 7.12502
lthumb 25.5904 28.3008
rfemur -13.9609 -11.7237 13.3962
rtibia 40.6164
rfoot 21.9156 5.96797
rtoes -11.4497
lfemur -16.1449 7.11116 -16.9144
ltibia 41.3819
lfoot 25.411 -7.06681
ltoes -8.20072
36
root 4.73224 23.626 19.6621 8.04609 -0.155472 2.55095
lowerback -9.41627 0.110235 -0.230562
upperback 2.83738 0.205419 -0.361279
thorax 8.29981 0.0986319 -0.218822
lowerneck 1.26332 -2.782 -0.0435718
upperneck 11.4553 -3.74287 0.131373
head 3.47012 -1.84765 -0.0475033
rclavicle -5.1684e-015 2.18663e-015
rhumerus -43.3836 -39.5512 -22.0541
rradius 142.561
rwrist -222.125
rhand -2.8943e-013 -2.54444e-014
rfingers 7.12502
rthumb 25.5904 -28.3008
lclavicle -5.1684e-015 2.18663e-015
lhumerus -27.9735 -14.4096 47.4217
lradius 133.578
lwrist 3.50485
lhand -2.03555e-013 5.20816e-013
lfingers 7.12502
lthumb 25.5904 28.3008
rfemur -14.3496 -11.8262 13.3364
rtibia 40.7358
rfoot 21.1762 6.39745
rtoes -10.4553
lfemur -16.4708 7.54162 -17.1688
ltibia 41.4098
lfoot 25.1986 -7.65762
ltoes -9.10376
